<?xml version="1.0" standalone="no"?>
<!DOCTYPE svg PUBLIC "-//W3C//DTD SVG 20010904//EN"
 "http://www.w3.org/TR/2001/REC-SVG-20010904/DTD/svg10.dtd">
<svg version="1.0" xmlns="http://www.w3.org/2000/svg"
 width="512.000000pt" height="512.000000pt" viewBox="0 0 512.000000 512.000000"
 preserveAspectRatio="xMidYMid meet">
<metadata>
Created by potrace 1.14, written by Peter Selinger 2001-2017
</metadata>
<g transform="translate(0.000000,512.000000) scale(0.100000,-0.100000)"
fill="#000000" stroke="none">
<path d="M865 5101 c-50 -22 -104 -78 -126 -130 -15 -34 -17 -146 -17 -1217
-1 -648 -1 -1184 -2 -1189 0 -7 -34 -10 -87 -10 -49 1 -108 -3 -133 -7 -95
-17 -179 -80 -228 -173 l-27 -50 0 -805 0 -805 25 -50 c32 -64 92 -124 155
-154 50 -24 112 -30 306 -31 l65 0 0 -85 c0 -60 -3 -85 -12 -85 -26 0 -56 -36
-59 -73 -8 -83 52 -176 141 -218 37 -18 116 -18 1944 -16 1814 2 1907 3 1938
20 18 10 48 34 67 54 70 74 65 -85 65 2138 -1 1994 -1 2010 -21 2055 -15 34
-114 140 -392 418 -205 205 -392 385 -417 400 l-45 27 -1550 2 c-1474 1 -1552
1 -1590 -16z"/>
</g>
</svg>
